<?xml version="1.0" encoding="UTF-8"?>
<svg id="uuid-2eccb3d0-3396-49d6-89cb-e3d2c84c36ed" data-name="Calque 2" xmlns="http://www.w3.org/2000/svg" viewBox="0 0 96.98 89.46">
  <defs>
    <style>
      .uuid-bfe49427-cbe1-4564-8bd6-8a418108e07a {
        fill: #6ec5ea;
      }

      .uuid-3819e6dd-ab22-4872-a02d-3360601e9cb8 {
        fill: #fed168;
      }

      .uuid-95ae9eb3-c367-425e-9894-892afa2abb5e {
        fill: #8bc795;
      }

      .uuid-eeb097ae-5700-455d-9b43-ec5d9f3909c5 {
        fill: #b9dcc4;
      }

      .uuid-b65f9dc8-620a-4bbd-bcf1-a0817e710b27 {
        fill: none;
        stroke: #2e2e2f;
        stroke-linecap: round;
        stroke-linejoin: round;
        stroke-width: 3.01px;
      }

      .uuid-fd77f47b-5831-4070-b4ba-52120c79749f {
        fill: #e3bd71;
      }
    </style>
  </defs>
  <g id="uuid-f6fd4353-db5e-467d-88e9-b4be8860d992" data-name="Calque 1">
    <g>
      <path class="uuid-eeb097ae-5700-455d-9b43-ec5d9f3909c5" d="M96.98,12.02v21.18c-1.71-3.74-5.3-6.5-9.68-6.96L14.78,18.62c-6.6-.69-12.53,4.09-13.22,10.7l-1.55,14.76V12.02C0,5.39,5.39,0,12.04,0h72.91c6.64,0,12.03,5.39,12.03,12.02Z"/>
      <path class="uuid-95ae9eb3-c367-425e-9894-892afa2abb5e" d="M96.98,24.57v40.42l-2.14,19.28h0c-.51.75-1.1,1.42-1.77,2.03-2.14,1.98-4.99,3.17-8.13,3.17H12.04c-.19,0-.38,0-.57-.01-5.44-.25-9.82-4.6-10.39-10.02L.07,69.81c-.05-.42-.07-.85-.07-1.27V20.65c1.89-5.42,7.32-9.02,13.27-8.36l75.96,8.44c3.08.34,5.77,1.77,7.74,3.84Z"/>
      <path class="uuid-3819e6dd-ab22-4872-a02d-3360601e9cb8" d="M96.98,33.2v30.92l-.47-4.48c-.08-.71-.21-1.4-.41-2.07-1.58-5.51-6.92-9.25-12.81-8.63l-72.51,7.66c-6.18.64-10.77,5.87-10.77,11.94v-24.46l1.55-14.76c.69-6.61,6.62-11.4,13.22-10.7l72.52,7.61c4.38.46,7.98,3.22,9.68,6.96Z"/>
      <path class="uuid-fd77f47b-5831-4070-b4ba-52120c79749f" d="M96.98,50.65v26.78c0,2.54-.78,4.9-2.14,6.83h0c-.51.75-1.1,1.42-1.77,2.03-2.14,1.98-4.99,3.17-8.13,3.17H12.04c-.19,0-.38,0-.57-.01-5.44-.25-9.82-4.6-10.39-10.02L.07,69.81c-.05-.42-.07-.85-.07-1.27v-13.41c2.05-2.4,4.99-4.03,8.38-4.35l76.09-7.16c5.38-.51,10.29,2.45,12.51,7.04Z"/>
      <path class="uuid-bfe49427-cbe1-4564-8bd6-8a418108e07a" d="M96.98,64.11v13.32c0,2.54-.78,4.9-2.14,6.83h0c-.51.75-1.1,1.42-1.77,2.03-2.14,1.98-4.99,3.17-8.13,3.17H12.04c-.19,0-.38,0-.57-.01-5.96-.27-10.67-5.2-10.97-11.16l-.43-8.48c-.05-.42-.07-.85-.07-1.27,0-6.07,4.59-11.3,10.77-11.94l72.51-7.66c5.89-.62,11.24,3.12,12.81,8.63.2.66.33,1.35.41,2.07l.47,4.48Z"/>
      <polyline class="uuid-b65f9dc8-620a-4bbd-bcf1-a0817e710b27" points="57.26 68.32 67.22 78.27 86.69 58.8"/>
    </g>
  </g>
</svg>